<svg xmlns="http://www.w3.org/2000/svg" width="20" height="20" viewBox="0 0 20 20" fill="none">
<path d="M13.3922 7.46163L18.762 2.12494L18.7445 5.15004C18.7389 5.40224 18.9386 5.62135 19.1915 5.61573L19.5117 5.6151C19.7639 5.60949 19.973 5.45904 19.9786 5.20685L19.9917 0.700405C19.9917 0.696036 19.9749 0.692914 19.9749 0.688545L19.9999 0.46007C20.0024 0.333348 19.9724 0.220359 19.8912 0.139831C19.8101 0.058055 19.6971 0.00873946 19.5716 0.0124849L19.3431 0.0181032C19.3388 0.0181032 19.3357 0.0199759 19.3307 0.0206002L14.8536 0.000624247C14.6014 0.00624247 14.3929 0.214741 14.3872 0.467561L14.3866 0.7878C14.4247 1.08494 14.6588 1.25911 14.911 1.25349L17.8612 1.2616L12.5101 6.58019C12.2667 6.82365 12.2667 7.21942 12.5101 7.4635C12.7536 7.70758 13.1487 7.70696 13.3928 7.4635L13.3922 7.46163ZM6.62723 12.4868L1.25746 17.8073L1.27431 14.7984C1.28055 14.5462 1.07955 14.3265 0.82735 14.3321L0.48776 14.3327C0.23494 14.339 0.0264412 14.4888 0.020823 14.741L0.00771382 19.2474C0.00771382 19.2518 0.0251927 19.2543 0.0251927 19.2593L0.000222851 19.4871C-0.00289839 19.6138 0.0270655 19.7275 0.108842 19.808C0.18937 19.8898 0.302983 19.9391 0.428456 19.936L0.656931 19.9303C0.661301 19.9303 0.664422 19.9285 0.669416 19.9285L5.16587 19.9484C5.41806 19.9422 5.62656 19.7337 5.6328 19.4815L5.63343 19.1606C5.59473 18.8635 5.36126 18.6893 5.10906 18.695L2.15887 18.6875L7.50929 13.3701C7.75275 13.1267 7.75275 12.7315 7.50929 12.4874C7.26584 12.2434 6.87069 12.2427 6.62723 12.4868ZM19.9924 19.2474L19.9793 14.741C19.9736 14.4888 19.7651 14.3383 19.5129 14.3327L19.1927 14.3321C18.9405 14.3265 18.7401 14.5462 18.7457 14.7984L18.7632 17.8235L13.3934 12.4868C13.15 12.2434 12.7548 12.2434 12.5108 12.4868C12.2667 12.7303 12.2673 13.1254 12.5108 13.3695L17.8612 18.6868L14.911 18.6943C14.6588 18.6887 14.4247 18.8629 14.3866 19.16L14.3872 19.4809C14.3929 19.7331 14.602 19.9422 14.8536 19.9478L19.3307 19.9278C19.3357 19.9278 19.3388 19.9297 19.3431 19.9297L19.5716 19.9353C19.6971 19.9385 19.8113 19.8891 19.8912 19.8074C19.973 19.7268 20.0024 19.6132 19.9999 19.4865L19.9749 19.2587C19.9749 19.2537 19.9917 19.2512 19.9917 19.2468L19.9924 19.2474ZM2.15887 1.26036L5.10969 1.25286C5.36188 1.25848 5.59535 1.08432 5.63405 0.787176L5.63343 0.466937C5.62719 0.214117 5.41869 0.00561822 5.16649 0L0.669416 0.0193517C0.664422 0.0187274 0.661301 0.0168547 0.656931 0.0168547L0.428456 0.0112364C0.302983 0.00811521 0.18937 0.0574308 0.108842 0.138583C0.0264412 0.219735 -0.00289839 0.3321 0.000222851 0.459446L0.0251927 0.68792C0.0251927 0.69229 0.00771382 0.695412 0.00771382 0.700405L0.020823 5.20685C0.0264412 5.45904 0.23494 5.60949 0.48776 5.6151L0.827975 5.61573C1.08017 5.62135 1.27993 5.40224 1.27431 5.15004L1.25683 2.14179L6.62661 7.46225C6.87006 7.70571 7.26584 7.70571 7.50929 7.46225C7.75275 7.21879 7.75275 6.82302 7.50929 6.57894L2.15887 1.26036Z" fill="#313135"/>
</svg>